<?xml version="1.0" encoding="UTF-8" standalone="no"?>
<svg
   width="100"
   height="100"
   version="1.1"
   id="svg4"
   sodipodi:docname="bemol.svg"
   inkscape:version="1.3.2 (091e20e, 2023-11-25, custom)"
   xmlns:inkscape="http://www.inkscape.org/namespaces/inkscape"
   xmlns:sodipodi="http://sodipodi.sourceforge.net/DTD/sodipodi-0.dtd"
   xmlns="http://www.w3.org/2000/svg"
   xmlns:svg="http://www.w3.org/2000/svg">
  <defs
     id="defs8" />
  <sodipodi:namedview
     id="namedview6"
     pagecolor="#ffffff"
     bordercolor="#666666"
     borderopacity="1.0"
     inkscape:showpageshadow="2"
     inkscape:pageopacity="0.0"
     inkscape:pagecheckerboard="0"
     inkscape:deskcolor="#d1d1d1"
     showgrid="true"
     showguides="true"
     inkscape:zoom="18.6"
     inkscape:cx="50.645161"
     inkscape:cy="47.82258"
     inkscape:window-width="1920"
     inkscape:window-height="1057"
     inkscape:window-x="1912"
     inkscape:window-y="-8"
     inkscape:window-maximized="1"
     inkscape:current-layer="svg4">
    <sodipodi:guide
       position="50,50"
       orientation="0,1"
       id="guide545"
       inkscape:locked="false"
       inkscape:label=""
       inkscape:color="rgb(0,134,229)" />
    <sodipodi:guide
       position="50,50"
       orientation="1,0"
       id="guide547"
       inkscape:locked="false" />
    <inkscape:grid
       type="xygrid"
       id="grid549"
       empspacing="4"
       originx="0"
       originy="0"
       spacingy="1"
       spacingx="1"
       units="px"
       visible="true" />
    <sodipodi:guide
       position="0,62"
       orientation="0,-1"
       id="guide240"
       inkscape:locked="false" />
    <sodipodi:guide
       position="0,74"
       orientation="0,-1"
       id="guide242"
       inkscape:locked="false" />
    <sodipodi:guide
       position="0,38"
       orientation="0,-1"
       id="guide244"
       inkscape:locked="false" />
    <sodipodi:guide
       position="0,26"
       orientation="0,-1"
       id="guide246"
       inkscape:locked="false" />
  </sodipodi:namedview>
  <path
     id="rect4"
     style="fill-rule:evenodd;stroke-width:0.727643;stroke-linecap:square"
     d="m 46.628906,34.731665 -1.988281,0.679688 v 24.082788 l 2.298828,-0.78711 c 4.64622,-1.589696 8.419922,-6.106913 8.419922,-9.826172 0,-1.859629 -0.860574,-3.14884 -2.298828,-3.855468 -1.438254,-0.706628 -3.497192,-0.790946 -5.820313,0.0039 -0.299917,0.102593 -0.61168,-0.120521 -0.611328,-0.4375 z m 2.751953,10.871851 c 1.14431,0.06223 2.153956,0.49412 2.869141,1.242187 0.715185,0.748067 1.121094,1.801215 1.121094,3.03125 0,3.280121 -2.717718,6.718917 -6.13086,7.886719 -0.299917,0.102593 -0.61168,-0.120521 -0.611328,-0.4375 V 46.410156 c -4.86e-4,-0.197172 0.124255,-0.372907 0.310547,-0.4375 0.853474,-0.292015 1.678868,-0.410608 2.441406,-0.36914 z"
     sodipodi:nodetypes="ccccsscccsssccccs" />
</svg>
