<?xml version="1.0" encoding="UTF-8" standalone="no"?>
<svg
   width="100"
   height="100"
   version="1.1"
   id="svg4"
   sodipodi:docname="claveC.svg"
   inkscape:version="1.2 (dc2aedaf03, 2022-05-15)"
   xml:space="preserve"
   xmlns:inkscape="http://www.inkscape.org/namespaces/inkscape"
   xmlns:sodipodi="http://sodipodi.sourceforge.net/DTD/sodipodi-0.dtd"
   xmlns="http://www.w3.org/2000/svg"
   xmlns:svg="http://www.w3.org/2000/svg"><defs
     id="defs8" /><sodipodi:namedview
     id="namedview6"
     pagecolor="#ffffff"
     bordercolor="#666666"
     borderopacity="1.0"
     inkscape:showpageshadow="2"
     inkscape:pageopacity="0.0"
     inkscape:pagecheckerboard="0"
     inkscape:deskcolor="#d1d1d1"
     showgrid="true"
     showguides="true"
     inkscape:zoom="13.152186"
     inkscape:cx="51.664415"
     inkscape:cy="44.175165"
     inkscape:window-width="1920"
     inkscape:window-height="1017"
     inkscape:window-x="1912"
     inkscape:window-y="146"
     inkscape:window-maximized="1"
     inkscape:current-layer="svg4"><sodipodi:guide
       position="50,50"
       orientation="0,1"
       id="guide545"
       inkscape:locked="false"
       inkscape:label=""
       inkscape:color="rgb(0,134,229)" /><sodipodi:guide
       position="50,50"
       orientation="1,0"
       id="guide547"
       inkscape:locked="false" /><inkscape:grid
       type="xygrid"
       id="grid549"
       empspacing="4" /><sodipodi:guide
       position="0,62"
       orientation="0,-1"
       id="guide240"
       inkscape:locked="false" /><sodipodi:guide
       position="0,74"
       orientation="0,-1"
       id="guide242"
       inkscape:locked="false" /><sodipodi:guide
       position="0,38"
       orientation="0,-1"
       id="guide244"
       inkscape:locked="false" /><sodipodi:guide
       position="0,26"
       orientation="0,-1"
       id="guide246"
       inkscape:locked="false" /></sodipodi:namedview><rect
     style="fill:#000000;fill-rule:evenodd;stroke-linecap:round;stroke-linejoin:round;paint-order:stroke fill markers;stop-color:#000000"
     id="rect377"
     width="5"
     height="48"
     x="34"
     y="26" /><rect
     style="fill:#000000;fill-rule:evenodd;stroke-linecap:round;stroke-linejoin:round;paint-order:stroke fill markers;stop-color:#000000"
     id="rect431"
     width="1"
     height="48"
     x="43"
     y="26" /><path
     id="path485"
     style="fill:#000000;fill-rule:evenodd;stroke-linecap:round;stroke-linejoin:round;paint-order:stroke fill markers;stop-color:#000000"
     d="M 55 26 C 52.000006 26 48.999998 27.000004 48 29 C 47.483767 30.032467 47 31.000001 47 32 C 47 32.999999 48.000002 35 50 35 C 51.999998 35 53.022661 33.327254 53 32 C 52.97734 30.672746 52.440278 30.440278 52 30 C 51.000002 29.000002 51.000006 27 54 27 C 56.999994 27 60 28.000016 60 36 C 60 43.999984 56.999992 46.999996 53 45 C 49.000008 43.000004 50 39 50 39 C 50 39 48.999996 43.000006 47 46 C 45.000004 48.999994 43 50 43 50 C 43 50 45.000004 51.000006 47 54 C 48.999996 56.999994 50 61 50 61 C 50 61 49.000008 56.999996 53 55 C 56.999992 53.000004 60 56.000016 60 64 C 60 71.999984 56.999994 73 54 73 C 51.000006 73 51.000002 70.999998 52 70 C 52.440278 69.559722 52.97734 69.327254 53 68 C 53.022661 66.672746 51.999998 65 50 65 C 48.000002 65 47 67.000001 47 68 C 47 68.999999 47.483767 69.967533 48 71 C 48.999998 72.999996 52.000006 74 55 74 C 57.999994 74 66 72.999982 66 64 C 66 55.000018 59.999994 53 57 53 C 54.000006 53 52 54 52 54 L 50 50 L 52 46 C 52 46 54.000006 47 57 47 C 59.999994 47 66 44.999982 66 36 C 66 27.000018 57.999994 26 55 26 z " /></svg>
