<?xml version="1.0" encoding="UTF-8" standalone="no"?>
<svg
   width="100"
   height="100"
   version="1.1"
   id="svg4"
   sodipodi:docname="claveG.svg"
   inkscape:version="1.2 (dc2aedaf03, 2022-05-15)"
   xml:space="preserve"
   xmlns:inkscape="http://www.inkscape.org/namespaces/inkscape"
   xmlns:sodipodi="http://sodipodi.sourceforge.net/DTD/sodipodi-0.dtd"
   xmlns="http://www.w3.org/2000/svg"
   xmlns:svg="http://www.w3.org/2000/svg"><path
     id="path1039"
     style="fill:#000000;stroke-width:3.75;stroke-linecap:square;stroke-miterlimit:3;stop-color:#000000"
     d="m 51,7 c -1.999998,0 -4.000002,3.000004 -6,7 -1.999998,3.999996 -1.999999,13.000005 -1,18 0.03342,0.167103 0.113986,0.642464 0.158203,0.880859 C 42.222269,34.60791 40.144088,36.332376 38,38 c -8.999991,6.999993 -9.999999,18.000004 -9,22 0.999999,3.999996 6.000011,14 17,14 1.785979,0 3.369068,-0.171861 4.798828,-0.466797 C 51.14037,75.655655 51.849912,80.099474 52,81 c 0.999999,5.999994 -0.128836,8.509852 -3,11 -2.03022,1.7608 -5.000003,1.999999 -8,1 -2.999997,-0.999999 2e-6,-1.000002 1.635749,-2.494836 C 44.271497,89.010331 44.995101,87.550135 45,86 c 0,-2.761424 -2.238576,-5 -5,-5 -2.761424,0 -5,2.238576 -5,5 0,0 -0.995668,9.293991 9,9 7.311821,-0.215054 10,-6.000003 10,-9 C 54,84.678295 53.24835,79.534902 52.240234,73.171875 58.543242,71.304993 61,66.464732 61,61 61,54.000007 55.999994,49 50,49 c -0.587161,0 -1.172368,0.06126 -1.753906,0.152344 -0.751242,-4.393982 -1.25756,-7.378667 -1.677735,-9.833985 C 49.955347,36.681851 53.541031,33.376906 55,29 56.999998,23.000006 56.999999,18.999996 56,15 55.000001,11.000004 52.999998,7 51,7 Z m 1.625,7.5 C 53.999999,14.5 55,15.500003 55,18 55,21.523518 51.021383,26.537307 45.525391,31.640625 45.153911,25.985399 45.648747,19.351253 48,17 c 1.499998,-1.499999 3.250001,-2.5 4.625,-2.5 z m -7.214844,25.697266 c 0.435721,2.634591 0.976576,5.981913 1.503906,9.236328 C 42.102657,50.741998 38,54.866385 38,59 c 0,4.999995 4.000002,8.000001 6,9 1.999998,0.999999 -2e-6,-4e-6 -2,-4 -1.999998,-3.999996 1.000003,-7.000001 4,-8 0.546098,-0.182033 1.211372,-0.31071 1.914062,-0.402344 1.179764,7.32839 1.896644,11.789936 2.712891,16.869141 C 46.092616,73.791913 41.633568,72.725176 38,70 34.000004,67.000003 31.000001,61.999995 32,57 c 0.999999,-4.999995 7.000004,-12.000003 11,-15 0.734648,-0.550986 1.577753,-1.178089 2.410156,-1.802734 z m 4.06836,15.279296 C 52.360105,55.487305 55.625001,56.562503 57,60 c 1.992721,4.981802 0.01277,9.962129 -4.947266,11.976562 -0.838116,-5.244698 -1.774924,-10.842468 -2.732422,-16.496093 0.05316,-5.24e-4 0.104764,-0.0041 0.158204,-0.0039 z"
     sodipodi:nodetypes="ssscssscsssccscsscssccssssscssccssssccssscssccs" /><defs
     id="defs8" /><sodipodi:namedview
     id="namedview6"
     pagecolor="#ffffff"
     bordercolor="#666666"
     borderopacity="1.0"
     inkscape:showpageshadow="2"
     inkscape:pageopacity="0.0"
     inkscape:pagecheckerboard="0"
     inkscape:deskcolor="#d1d1d1"
     showgrid="true"
     showguides="true"
     inkscape:zoom="6.5760931"
     inkscape:cx="67.441259"
     inkscape:cy="61.738785"
     inkscape:window-width="1920"
     inkscape:window-height="1017"
     inkscape:window-x="1912"
     inkscape:window-y="146"
     inkscape:window-maximized="1"
     inkscape:current-layer="svg4"><sodipodi:guide
       position="50,50"
       orientation="0,1"
       id="guide545"
       inkscape:locked="false"
       inkscape:label=""
       inkscape:color="rgb(0,134,229)" /><sodipodi:guide
       position="50,50"
       orientation="1,0"
       id="guide547"
       inkscape:locked="false" /><inkscape:grid
       type="xygrid"
       id="grid549"
       empspacing="4" /></sodipodi:namedview></svg>
