<?xml version="1.0" encoding="UTF-8" standalone="no"?>
<svg
   width="100"
   height="100"
   version="1.1"
   id="svg4"
   sodipodi:docname="claveF.svg"
   inkscape:version="1.2 (dc2aedaf03, 2022-05-15)"
   xml:space="preserve"
   xmlns:inkscape="http://www.inkscape.org/namespaces/inkscape"
   xmlns:sodipodi="http://sodipodi.sourceforge.net/DTD/sodipodi-0.dtd"
   xmlns="http://www.w3.org/2000/svg"
   xmlns:svg="http://www.w3.org/2000/svg"><defs
     id="defs8"><inkscape:path-effect
       effect="bspline"
       id="path-effect499"
       is_visible="true"
       lpeversion="1"
       weight="33.333333"
       steps="2"
       helper_size="0"
       apply_no_weight="true"
       apply_with_weight="true"
       only_selected="false" /></defs><sodipodi:namedview
     id="namedview6"
     pagecolor="#ffffff"
     bordercolor="#666666"
     borderopacity="1.0"
     inkscape:showpageshadow="2"
     inkscape:pageopacity="0.0"
     inkscape:pagecheckerboard="0"
     inkscape:deskcolor="#d1d1d1"
     showgrid="true"
     showguides="true"
     inkscape:zoom="6.5760931"
     inkscape:cx="67.289193"
     inkscape:cy="36.6479"
     inkscape:window-width="1920"
     inkscape:window-height="1009"
     inkscape:window-x="-8"
     inkscape:window-y="-8"
     inkscape:window-maximized="1"
     inkscape:current-layer="svg4"><sodipodi:guide
       position="50,50"
       orientation="0,1"
       id="guide545"
       inkscape:locked="false"
       inkscape:label=""
       inkscape:color="rgb(0,134,229)" /><sodipodi:guide
       position="50,50"
       orientation="1,0"
       id="guide547"
       inkscape:locked="false" /><inkscape:grid
       type="xygrid"
       id="grid549"
       empspacing="4" /></sodipodi:namedview><circle
     style="fill:#000000;stroke-width:3;stroke-linecap:square;stroke-miterlimit:3;stop-color:#000000"
     id="path661"
     cx="64"
     cy="33"
     r="2" /><circle
     style="fill:#000000;stroke-width:3;stroke-linecap:square;stroke-miterlimit:3;stop-color:#000000"
     id="circle663"
     cx="64"
     cy="43"
     r="2" /><path
     id="path2666"
     style="fill:#000000;fill-rule:evenodd;stroke-width:0.544482;paint-order:stroke fill markers;stop-color:#000000"
     d="M 48.203125,26.507812 C 43.988774,26.499268 39.749998,28.250002 38,30 c -3.697141,3.697141 -3.121008,9.094634 -1.433594,10.681641 0.85622,0.977841 2.566037,1.315285 4.433594,0.875 2.76075,-0.654769 4.999048,-2.777654 5,-4.742188 -0.0049,-1.840388 -1.984199,-2.905444 -6.459871,-2.707604 C 35.064458,34.304688 41.000006,27.000001 47,28 c 5.999994,0.999999 7.999997,10.000007 5,17 -2.999997,6.999993 -18,19 -18,19 0,0 25,-8.000017 25,-25 0,-9.56249 -5.378423,-12.481201 -10.796875,-12.492188 z"
     sodipodi:nodetypes="ssccccsscss" /></svg>
