<?xml version="1.0" encoding="UTF-8" standalone="no"?>
<svg
   width="100"
   height="100"
   version="1.1"
   id="svg4"
   sodipodi:docname="sustenido.svg"
   inkscape:version="1.3.2 (091e20e, 2023-11-25, custom)"
   xmlns:inkscape="http://www.inkscape.org/namespaces/inkscape"
   xmlns:sodipodi="http://sodipodi.sourceforge.net/DTD/sodipodi-0.dtd"
   xmlns="http://www.w3.org/2000/svg"
   xmlns:svg="http://www.w3.org/2000/svg">
  <defs
     id="defs8" />
  <sodipodi:namedview
     id="namedview6"
     pagecolor="#ffffff"
     bordercolor="#666666"
     borderopacity="1.0"
     inkscape:showpageshadow="2"
     inkscape:pageopacity="0.0"
     inkscape:pagecheckerboard="0"
     inkscape:deskcolor="#d1d1d1"
     showgrid="true"
     showguides="true"
     inkscape:zoom="13.152186"
     inkscape:cx="53.603256"
     inkscape:cy="58.051185"
     inkscape:window-width="1920"
     inkscape:window-height="1057"
     inkscape:window-x="1912"
     inkscape:window-y="-8"
     inkscape:window-maximized="1"
     inkscape:current-layer="svg4">
    <sodipodi:guide
       position="50,50"
       orientation="0,1"
       id="guide545"
       inkscape:locked="false"
       inkscape:label=""
       inkscape:color="rgb(0,134,229)" />
    <sodipodi:guide
       position="50,50"
       orientation="1,0"
       id="guide547"
       inkscape:locked="false" />
    <inkscape:grid
       type="xygrid"
       id="grid549"
       empspacing="4"
       originx="0"
       originy="0"
       spacingy="1"
       spacingx="1"
       units="px"
       visible="true" />
    <sodipodi:guide
       position="0,62"
       orientation="0,-1"
       id="guide240"
       inkscape:locked="false" />
    <sodipodi:guide
       position="0,74"
       orientation="0,-1"
       id="guide242"
       inkscape:locked="false" />
    <sodipodi:guide
       position="0,38"
       orientation="0,-1"
       id="guide244"
       inkscape:locked="false" />
    <sodipodi:guide
       position="0,26"
       orientation="0,-1"
       id="guide246"
       inkscape:locked="false" />
  </sodipodi:namedview>
  <path
     id="rect1"
     style="fill:#000000;fill-rule:evenodd;stroke-width:0.912871;stroke-linecap:square"
     sodipodi:type="inkscape:offset"
     inkscape:radius="-0.48679522"
     inkscape:original="M 55 32.099609 L 52.5 33.048828 L 52.5 41.048828 L 47.5 42.951172 L 47.5 34.951172 L 45 35.900391 L 45 43.900391 L 40 45.800781 L 40 49.800781 L 45 47.900391 L 45 55.900391 L 40 57.800781 L 40 61.800781 L 45 59.900391 L 45 67.900391 L 47.5 66.951172 L 47.5 58.951172 L 52.5 57.048828 L 52.5 65.048828 L 55 64.099609 L 55 56.099609 L 60 54.199219 L 60 50.199219 L 55 52.099609 L 55 44.099609 L 60 42.199219 L 60 38.199219 L 55 40.099609 L 55 32.099609 z M 52.5 45.048828 L 52.5 53.048828 L 47.5 54.951172 L 47.5 46.951172 L 52.5 45.048828 z "
     d="m 54.513672,32.804687 -1.527344,0.580079 v 7.664062 a 0.4868439,0.4868439 0 0 1 -0.3125,0.455078 l -5,1.902344 A 0.4868439,0.4868439 0 0 1 47.013672,42.951172 V 35.65625 l -1.527344,0.580078 v 7.664063 a 0.4868439,0.4868439 0 0 1 -0.3125,0.455078 l -4.6875,1.78125 v 2.958984 l 4.339844,-1.650391 a 0.4868439,0.4868439 0 0 1 0.660156,0.455079 v 8 a 0.4868439,0.4868439 0 0 1 -0.3125,0.455078 l -4.6875,1.78125 v 2.958984 l 4.339844,-1.650391 a 0.4868439,0.4868439 0 0 1 0.660156,0.455079 v 7.294921 l 1.527344,-0.580078 v -7.664062 a 0.4868439,0.4868439 0 0 1 0.3125,-0.455078 l 5,-1.902344 a 0.4868439,0.4868439 0 0 1 0.660156,0.455078 v 7.294922 l 1.527344,-0.580078 v -7.664063 a 0.4868439,0.4868439 0 0 1 0.3125,-0.455078 l 4.6875,-1.78125 v -2.958984 l -4.339844,1.65039 a 0.4868439,0.4868439 0 0 1 -0.660156,-0.455078 v -8 a 0.4868439,0.4868439 0 0 1 0.3125,-0.455078 l 4.6875,-1.78125 v -2.958984 l -4.339844,1.65039 a 0.4868439,0.4868439 0 0 1 -0.660156,-0.455078 z m -2.1875,11.789063 a 0.4868439,0.4868439 0 0 1 0.660156,0.455078 v 8 a 0.4868439,0.4868439 0 0 1 -0.3125,0.455078 l -5,1.902344 a 0.4868439,0.4868439 0 0 1 -0.660156,-0.455078 v -8 a 0.4868439,0.4868439 0 0 1 0.3125,-0.455078 z"
     transform="matrix(0.7357832,0,0,0.7357832,13.21084,15.21084)" />
</svg>
